# xmcd
# Track frame offsets:
# 150
# 9608
# 20725
# 31230
# 40733
# 54188
# 66358
# 76090
# 89415
# 101980
# 112748
# 121790
# 134638
# 145525
#
# Disc length: 2073 seconds
# Revision: 0
# Processed by: cddbd v1.4PL0 Copyright (c) Steve Scherf et al.
# Submitted via: VisiTrax 2.9.5.180 - For more info visit www.synapsa.com
#
DISCID=b008170e
DTITLE=Dave Dudley - Six days on the road
DYEAR=1900
DGENRE=
TTITLE0=Six days on the road
TTITLE1=Cowboy boots
TTITLE2=One more mile
TTITLE3=Fly away again
TTITLE4=George and the North woods
TTITLE5=There ain't no easy runs
TTITLE6=Comin'down
TTITLE7=Pool shark
TTITLE8=Mad
TTITLE9=Anthing leaving town today
TTITLE10=Keep on truckin'
TTITLE11=Me and ole C.B.
TTITLE12=Truck drivin' son of a gun
TTITLE13=Two six packs away
EXTD=
EXTT0=
EXTT1=
EXTT2=
EXTT3=
EXTT4=
EXTT5=
EXTT6=
EXTT7=
EXTT8=
EXTT9=
EXTT10=
EXTT11=
EXTT12=
EXTT13=
PLAYORDER=
